<svg width="1200" height="620" viewBox="0 0 1200 620" fill="none" xmlns="http://www.w3.org/2000/svg">
  <rect width="1200" height="620" fill="#0D1117"/>
  <defs>
    <pattern id="grid" width="20" height="20" patternUnits="userSpaceOnUse">
      <rect x="2" y="2" width="14" height="14" rx="3" fill="#161B22"/>
    </pattern>
    <filter id="glow" x="-50%" y="-50%" width="200%" height="200%">
      <feGaussianBlur stdDeviation="4" result="blur"/>
      <feMerge>
        <feMergeNode in="blur"/>
        <feMergeNode in="SourceGraphic"/>
      </feMerge>
    </filter>
  </defs>

  <text x="32" y="54" fill="#E6EDF3" font-family="Verdana, Arial, sans-serif" font-size="30" font-weight="800">📊 GitHub Stats</text>
  <line x1="32" y1="74" x2="1168" y2="74" stroke="#30363D"/>

  <rect x="54" y="130" width="1090" height="150" fill="url(#grid)"/>
  <rect x="230" y="210" width="16" height="16" rx="4" fill="#93008F" filter="url(#glow)"/>
  <rect x="246" y="214" width="16" height="16" rx="4" fill="#A0009C" filter="url(#glow)"/>
  <rect x="262" y="224" width="16" height="16" rx="4" fill="#B400AA" filter="url(#glow)"/>
  <rect x="278" y="235" width="16" height="16" rx="4" fill="#C018B8" filter="url(#glow)"/>
  <rect x="294" y="228" width="16" height="16" rx="4" fill="#B020A8" filter="url(#glow)"/>
  <rect x="596" y="188" width="14" height="14" rx="3" fill="#0E9F43"/>
  <rect x="616" y="208" width="14" height="14" rx="3" fill="#00C853"/>
  <rect x="654" y="234" width="14" height="14" rx="3" fill="#13A34A"/>
  <rect x="730" y="210" width="14" height="14" rx="3" fill="#00D95F"/>
  <rect x="930" y="214" width="14" height="14" rx="3" fill="#0E9F43"/>
  <rect x="1012" y="192" width="14" height="14" rx="3" fill="#006D32"/>
  <rect x="1036" y="212" width="14" height="14" rx="3" fill="#00C853"/>
  <rect x="1036" y="232" width="14" height="14" rx="3" fill="#00D95F"/>
  <rect x="1090" y="174" width="14" height="14" rx="3" fill="#00441F"/>

  <rect x="54" y="326" width="1090" height="16" fill="#003D25"/>
  <rect x="1004" y="326" width="5" height="16" fill="#006D32"/>
  <rect x="1014" y="326" width="5" height="16" fill="#0E9F43"/>
  <rect x="1024" y="326" width="5" height="16" fill="#00D95F"/>

  <text x="152" y="408" fill="#B45CFF" font-family="Verdana, Arial, sans-serif" font-size="25" font-weight="800">Duo's GitHub Stats</text>

  <text x="154" y="450" fill="#B45CFF" font-family="Verdana, Arial, sans-serif" font-size="18">☆</text>
  <text x="188" y="450" fill="#E6EDF3" font-family="Verdana, Arial, sans-serif" font-size="18" font-weight="700">Total stars earned:</text>
  <text x="430" y="450" fill="#E6EDF3" font-family="Verdana, Arial, sans-serif" font-size="18" font-weight="800">5</text>

  <text x="154" y="482" fill="#B45CFF" font-family="Verdana, Arial, sans-serif" font-size="18">↻</text>
  <text x="188" y="482" fill="#E6EDF3" font-family="Verdana, Arial, sans-serif" font-size="18" font-weight="700">Total contributions:</text>
  <text x="430" y="482" fill="#E6EDF3" font-family="Verdana, Arial, sans-serif" font-size="18" font-weight="800">310</text>

  <text x="154" y="514" fill="#B45CFF" font-family="Verdana, Arial, sans-serif" font-size="18">⑂</text>
  <text x="188" y="514" fill="#E6EDF3" font-family="Verdana, Arial, sans-serif" font-size="18" font-weight="700">Pull requests:</text>
  <text x="430" y="514" fill="#E6EDF3" font-family="Verdana, Arial, sans-serif" font-size="18" font-weight="800">2</text>

  <text x="154" y="546" fill="#B45CFF" font-family="Verdana, Arial, sans-serif" font-size="18">!</text>
  <text x="188" y="546" fill="#E6EDF3" font-family="Verdana, Arial, sans-serif" font-size="18" font-weight="700">Issues opened:</text>
  <text x="430" y="546" fill="#E6EDF3" font-family="Verdana, Arial, sans-serif" font-size="18" font-weight="800">0</text>

  <text x="154" y="578" fill="#B45CFF" font-family="Verdana, Arial, sans-serif" font-size="18">▣</text>
  <text x="188" y="578" fill="#E6EDF3" font-family="Verdana, Arial, sans-serif" font-size="18" font-weight="700">Public repositories:</text>
  <text x="430" y="578" fill="#E6EDF3" font-family="Verdana, Arial, sans-serif" font-size="18" font-weight="800">13</text>

  <circle cx="590" cy="500" r="52" stroke="#2A1944" stroke-width="8"/>
  <path d="M590 448a52 52 0 1 1-37 88" stroke="#9B4DFF" stroke-width="8" stroke-linecap="round"/>
  <text x="562" y="513" fill="#E6EDF3" font-family="Verdana, Arial, sans-serif" font-size="34" font-weight="900">B+</text>

  <text x="750" y="408" fill="#B45CFF" font-family="Verdana, Arial, sans-serif" font-size="25" font-weight="800">Most Used Languages</text>
  <rect x="750" y="438" width="330" height="10" rx="5" fill="#161B22"/>
  <rect x="750" y="438" width="289" height="10" rx="5" fill="#3572A5"/>
  <rect x="1039" y="438" width="21" height="10" fill="#F34B7D"/>
  <rect x="1060" y="438" width="14" height="10" fill="#89E051"/>
  <rect x="1074" y="438" width="5" height="10" fill="#101F1F"/>
  <rect x="1079" y="438" width="1" height="10" fill="#427819"/>

  <circle cx="756" cy="480" r="7" fill="#3572A5"/>
  <text x="772" y="486" fill="#E6EDF3" font-family="Verdana, Arial, sans-serif" font-size="16">Python 87.7%</text>
  <circle cx="756" cy="516" r="7" fill="#F34B7D"/>
  <text x="772" y="522" fill="#E6EDF3" font-family="Verdana, Arial, sans-serif" font-size="16">C++ 6.5%</text>
  <circle cx="756" cy="552" r="7" fill="#89E051"/>
  <text x="772" y="558" fill="#E6EDF3" font-family="Verdana, Arial, sans-serif" font-size="16">Shell 4.1%</text>
  <circle cx="940" cy="480" r="7" fill="#101F1F" stroke="#E6EDF3" stroke-opacity="0.25"/>
  <text x="956" y="486" fill="#E6EDF3" font-family="Verdana, Arial, sans-serif" font-size="16">AppleScript 1.5%</text>
  <circle cx="940" cy="516" r="7" fill="#427819"/>
  <text x="956" y="522" fill="#E6EDF3" font-family="Verdana, Arial, sans-serif" font-size="16">Makefile 0.2%</text>
  <circle cx="940" cy="552" r="7" fill="#7C3AED"/>
  <text x="956" y="558" fill="#E6EDF3" font-family="Verdana, Arial, sans-serif" font-size="16">VLA / Robotics</text>
</svg>
